<svg xmlns="http://www.w3.org/2000/svg" xmlns:xlink="http://www.w3.org/1999/xlink" aria-hidden="true" role="img"
class="iconify iconify--logos" width="31.88" height="32" preserveAspectRatio="xMidYMid meet" viewBox="0 0 32 32">
    <path fill="#77caa9" style="fill: var(--color1, #77caa9)" d="M31.917 16c0 8.837-7.163 16-16 16s-16-7.163-16-16 7.163-16 16-16c8.837 0 16 7.163 16 16z"></path>
    <path fill="#62a48d" style="fill: var(--color2, #62a48d)" d="M18.5 27h-11c-0.829 0-1.5-0.672-1.5-1.5v-1c0 0.828 0.671 1.5 1.5 1.5h11c0.828 0 1.5-0.672 1.5-1.5v1c0 0.828-0.672 1.5-1.5 1.5z"></path>
    <path fill="#e1e3cc" style="fill: var(--color3, #e1e3cc)" d="M18.5 6h-11c-0.829 0-1.5 0.671-1.5 1.5v17c0 0.828 0.671 1.5 1.5 1.5h11c0.828 0 1.5-0.672 1.5-1.5v-17c0-0.829-0.672-1.5-1.5-1.5z"></path>
    <path fill="#b7b7a7" style="fill: var(--color4, #b7b7a7)" d="M8 10.5h5v-1h-5z"></path>
    <path fill="#b7b7a7" style="fill: var(--color4, #b7b7a7)" d="M11.481 18.5h-3.481v-1h3.8l-0.149 0.149z"></path>
    <path fill="#b7b7a7" style="fill: var(--color4, #b7b7a7)" d="M13.3 16h-5.3v-1h6.3z"></path>
    <path fill="#b7b7a7" style="fill: var(--color4, #b7b7a7)" d="M15.8 13.5h-7.8v-1h8.8z"></path>
    <path fill="#b7b7a7" style="fill: var(--color4, #b7b7a7)" d="M10.981 21h-2.981v-1h3.181z"></path>
    <path fill="#b7b7a7" style="fill: var(--color4, #b7b7a7)" d="M18 23.5h-1.661l0.968-0.194 0.692-0.693zM10.481 23.5h-2.481v-1h2.681z"></path>
    <path fill="#b7b7a7" style="fill: var(--color4, #b7b7a7)" d="M10.236 24.721l0.244-1.221h5.859l-3.746 0.749z"></path>
    <path fill="#62a48d" style="fill: var(--color2, #62a48d)" d="M20 20.614v-11.314l0.136-0.136 1.768-1.768c0.293-0.293 0.677-0.439 1.061-0.439s0.768 0.146 1.061 0.439l3.536 3.536c0.586 0.586 0.586 1.536 0 2.121l-2.122 2.121z"></path>
    <path fill="#b7b7a7" style="fill: var(--color4, #b7b7a7)" d="M18 22.614v-0.114h-7.319l0.027-0.137 0.273-1.363h7.019v-1h-6.819l0.3-1.5h6.519v-1h-6.2l1.5-1.5h4.7v-1h-3.7l1.5-1.5h2.2v-1h-1.2l3.2-3.2v11.314z"></path>
    <path fill="#97978c" style="fill: var(--color5, #97978c)" d="M18 18.5h-6.519l0.17-0.851 0.149-0.149h6.2z"></path>
    <path fill="#97978c" style="fill: var(--color5, #97978c)" d="M18 16h-4.7l1-1h3.7z"></path>
    <path fill="#97978c" style="fill: var(--color5, #97978c)" d="M18 13.5h-2.2l1-1h1.2z"></path>
    <path fill="#97978c" style="fill: var(--color5, #97978c)" d="M18 21h-7.019l0.2-1h6.819z"></path>
    <path fill="#97978c" style="fill: var(--color5, #97978c)" d="M16.339 23.5h-5.859l0.2-1h7.319v0.114l-0.692 0.693z"></path>
    <path fill="#f3cc70" style="fill: var(--color6, #f3cc70)" d="M25.439 14.218c-0.586 0.586-1.536 0.586-2.121 0l-3.536-3.536c-0.586-0.586-0.586-1.536 0-2.121l2.121-2.122c0.586-0.586 1.536-0.586 2.122 0l3.536 3.536c0.586 0.586 0.586 1.536 0 2.121z"></path>
    <path fill="#e08e4c" style="fill: var(--color7, #e08e4c)" d="M13.065 18.107l-1.414-1.414 8.485-8.485 1.414 1.414z"></path>
    <path fill="#f3cc70" style="fill: var(--color8, #f3cc70)" d="M15.186 21.642l-2.829-2.829 9.192-9.192 2.828 2.829z"></path>
    <path fill="#e08e4c" style="fill: var(--color7, #e08e4c)" d="M17.308 22.349l-1.414-1.414 8.485-8.485 1.414 1.414z"></path>
    <path fill="#495672" style="fill: var(--color9, #495672)" d="M10.236 23.764l2.357-0.471-1.886-1.886z"></path>
    <path fill="#fff" style="fill: var(--color10, #fff)" d="M11.651 16.692l-0.943 4.714 1.886 1.886 4.714-0.943-0.707-0.707v-1.414h-2.829v-2.828h-1.414z"></path>
    </svg>